%
M48
M72
T01C0.02000
T02C0.02165
T03C0.03200
T04C0.03346
T05C0.03543
T06C0.03937
T07C0.04000
T08C0.05906
T09C0.12500
%
T01
X136250Y196300
X196250Y241300
X136250Y281300
T02
X241250Y256300
X241250Y236300
X281250Y211300
X281250Y201300
X271250Y181300
X301250Y156300
X306250Y186300
X271250Y121300
X291250Y101300
X301250Y111300
X271250Y81300
X281250Y71300
X286250Y61300
X276250Y56300
X296250Y51300
X316250Y41300
X241250Y6300
X166250Y101300
X201250Y136300
X206250Y151300
X196250Y166300
X211250Y176300
X206250Y191300
X191250Y191300
X191250Y186300
X221250Y196300
X221250Y121300
T03
X266250Y131300
X266250Y141300
X291250Y136300
X291250Y146300
X291250Y156300
X291250Y166300
X291250Y176300
X291250Y186300
X291250Y196300
X291250Y206300
X291250Y216300
X291250Y226300
X291250Y236300
X291250Y246300
X321250Y246300
X321250Y236300
X321250Y226300
X321250Y216300
X321250Y206300
X321250Y196300
X321250Y186300
X321250Y176300
X321250Y166300
X321250Y156300
X321250Y146300
X321250Y136300
X321250Y126300
X321250Y116300
X291250Y116300
X291250Y126300
X341250Y146300
X341250Y156300
X340750Y165800
X380750Y165800
X381250Y156300
X381250Y146300
X416250Y156300
X416250Y166300
X416250Y176300
X416250Y186300
X416250Y196300
X416250Y206300
X416250Y216300
X416250Y226300
X416250Y236300
X416250Y246300
X416250Y256300
X416250Y266300
X416250Y276300
X416250Y286300
X446250Y286300
X446250Y276300
X446250Y266300
X446250Y256300
X446250Y246300
X446250Y236300
X446250Y226300
X446250Y216300
X446250Y206300
X446250Y196300
X446250Y186300
X446250Y176300
X446250Y166300
X446250Y156300
X481250Y146300
X481250Y186300
X481250Y201300
X481250Y211300
X396250Y206300
X396250Y196300
X366250Y206300
X346250Y206300
X351250Y236300
X351250Y246300
X336250Y281300
X306250Y271300
X266250Y271300
X261250Y291300
X251250Y291300
X206250Y246300
X206250Y206300
X261250Y81300
X261250Y41300
X376250Y281300
T04
X124380Y284800
X124380Y264800
T05
X116250Y221143
X116250Y211300
X116250Y201457
T06
X216407Y266300
X236093Y266300
X386250Y296457
X386250Y316143
T07
X121250Y46300
X121250Y56300
X121250Y66300
X121250Y76300
X121250Y86300
X121250Y96300
X151250Y96300
X151250Y106300
X151250Y86300
X151250Y76300
X151250Y66300
X151250Y56300
X151250Y46300
X196250Y31300
X211250Y31300
X211250Y21300
X221250Y21300
X221250Y31300
X221250Y41300
X221250Y51300
X211250Y51300
X211250Y41300
X211250Y61300
X211250Y71300
X221250Y71300
X221250Y61300
X221250Y81300
X221250Y91300
X211250Y91300
X211250Y81300
X196250Y81300
X211250Y101300
X211250Y111300
X221250Y111300
X221250Y101300
X241250Y91300
X326250Y86300
X326250Y76300
X336250Y76300
X336250Y86300
X336250Y66300
X336250Y56300
X326250Y56300
X326250Y66300
X326250Y46300
X326250Y36300
X336250Y36300
X336250Y46300
X336250Y26300
X336250Y16300
X326250Y16300
X326250Y26300
X361250Y26300
X361250Y16300
X371250Y16300
X371250Y26300
X381250Y26300
X381250Y16300
X391250Y16300
X391250Y26300
X401250Y26300
X401250Y16300
X411250Y16300
X411250Y26300
X421250Y26300
X421250Y16300
X431250Y16300
X431250Y26300
X441250Y26300
X441250Y16300
X451250Y16300
X451250Y26300
X451250Y36300
X451250Y46300
X441250Y46300
X441250Y36300
X431250Y36300
X431250Y46300
X421250Y46300
X421250Y36300
X411250Y36300
X411250Y46300
X401250Y46300
X401250Y36300
X391250Y36300
X391250Y46300
X381250Y46300
X381250Y36300
X371250Y36300
X371250Y46300
X361250Y46300
X361250Y36300
X361250Y56300
X361250Y66300
X371250Y66300
X371250Y56300
X381250Y56300
X381250Y66300
X391250Y66300
X391250Y56300
X401250Y56300
X401250Y66300
X411250Y66300
X411250Y56300
X421250Y56300
X421250Y66300
X431250Y66300
X431250Y56300
X441250Y56300
X441250Y66300
X451250Y66300
X451250Y56300
X451250Y76300
X451250Y86300
X441250Y86300
X441250Y76300
X431250Y76300
X431250Y86300
X421250Y86300
X421250Y76300
X411250Y76300
X411250Y86300
X401250Y86300
X401250Y76300
X391250Y76300
X391250Y86300
X381250Y86300
X381250Y76300
X371250Y76300
X371250Y86300
X361250Y86300
X361250Y76300
X476250Y76300
X476250Y86300
X486250Y86300
X486250Y76300
X486250Y66300
X486250Y56300
X476250Y56300
X476250Y66300
X476250Y46300
X476250Y36300
X486250Y36300
X486250Y46300
X486250Y26300
X486250Y16300
X476250Y16300
X476250Y26300
X251250Y206300
X251250Y216300
X251250Y226300
X251250Y236300
X251250Y246300
X186250Y241300
X176250Y241300
X166250Y241300
X156250Y241300
X116250Y156300
X116250Y146300
X211250Y11300
X221250Y11300
X396250Y216300
X396250Y226300
X396250Y236300
X396250Y246300
X396250Y256300
X396250Y266300
X396250Y276300
X466250Y276300
X466250Y266300
X466250Y286300
X311250Y311300
X311250Y321300
X311250Y331300
X311250Y341300
X311250Y351300
X311250Y361300
X311250Y371300
X281250Y371300
X281250Y361300
X281250Y351300
X281250Y341300
X281250Y331300
X281250Y321300
X281250Y311300
X266250Y311300
X241250Y331300
X241250Y341300
X241250Y366300
X241250Y376300
T08
X113750Y288580
X113750Y261020
T09
X116250Y306300
X116250Y381300
X491250Y381300
X491250Y306300
M30
