G04 EAGLE Gerber RS-274X export*
G75*
%MOMM*%
%FSLAX34Y34*%
%LPD*%
%INBottom Soldermask*%
%IPPOS*%
%AMOC8*
5,1,8,0,0,1.08239X$1,22.5*%
G01*
%ADD10C,3.378200*%
%ADD11C,1.625600*%
%ADD12C,1.662800*%
%ADD13C,2.453200*%
%ADD14C,1.712800*%
%ADD15C,2.082800*%
%ADD16P,1.759533X8X22.500000*%
%ADD17P,1.759533X8X202.500000*%
%ADD18C,1.812800*%
%ADD19P,1.759533X8X292.500000*%
%ADD20P,1.759533X8X112.500000*%
%ADD21C,1.625600*%
%ADD22P,2.254402X8X112.500000*%
%ADD23C,1.261200*%


D10*
X25400Y965200D03*
X25400Y774700D03*
X977900Y774700D03*
X977900Y965200D03*
D11*
X477012Y622300D02*
X462788Y622300D01*
X462788Y596900D02*
X477012Y596900D01*
X477012Y571500D02*
X462788Y571500D01*
X462788Y546100D02*
X477012Y546100D01*
X477012Y520700D02*
X462788Y520700D01*
X462788Y495300D02*
X477012Y495300D01*
X477012Y469900D02*
X462788Y469900D01*
X462788Y444500D02*
X477012Y444500D01*
X477012Y419100D02*
X462788Y419100D01*
X462788Y393700D02*
X477012Y393700D01*
X477012Y368300D02*
X462788Y368300D01*
X462788Y342900D02*
X477012Y342900D01*
X477012Y317500D02*
X462788Y317500D01*
X462788Y292100D02*
X477012Y292100D01*
X538988Y292100D02*
X553212Y292100D01*
X553212Y317500D02*
X538988Y317500D01*
X538988Y342900D02*
X553212Y342900D01*
X553212Y368300D02*
X538988Y368300D01*
X538988Y393700D02*
X553212Y393700D01*
X553212Y419100D02*
X538988Y419100D01*
X538988Y444500D02*
X553212Y444500D01*
X553212Y469900D02*
X538988Y469900D01*
X538988Y495300D02*
X553212Y495300D01*
X553212Y520700D02*
X538988Y520700D01*
X538988Y546100D02*
X553212Y546100D01*
X553212Y571500D02*
X538988Y571500D01*
X538988Y596900D02*
X553212Y596900D01*
X553212Y622300D02*
X538988Y622300D01*
D12*
X46050Y720090D03*
X46050Y669290D03*
D13*
X19050Y729690D03*
X19050Y659690D03*
D14*
X25400Y558400D03*
X25400Y533400D03*
X25400Y508400D03*
D15*
X25400Y368300D03*
X25400Y393700D03*
X127000Y609600D03*
X152400Y609600D03*
X177800Y609600D03*
X203200Y609600D03*
D16*
X368300Y736600D03*
X393700Y736600D03*
D17*
X508000Y685800D03*
X406400Y685800D03*
D15*
X368300Y622300D03*
X368300Y596900D03*
X368300Y571500D03*
X368300Y546100D03*
X368300Y520700D03*
D18*
X279800Y673100D03*
X329800Y673100D03*
D19*
X254000Y622300D03*
X254000Y520700D03*
X622300Y622300D03*
X622300Y596900D03*
D20*
X406400Y330200D03*
X406400Y355600D03*
D21*
X609600Y520700D03*
D16*
X660400Y520700D03*
D15*
X38100Y241300D03*
X38100Y215900D03*
X38100Y190500D03*
X38100Y165100D03*
X38100Y139700D03*
X38100Y114300D03*
X114300Y266700D03*
X114300Y241300D03*
X114300Y215900D03*
X114300Y190500D03*
X114300Y165100D03*
X114300Y139700D03*
X114300Y114300D03*
D11*
X780288Y723900D02*
X794512Y723900D01*
X794512Y698500D02*
X780288Y698500D01*
X780288Y673100D02*
X794512Y673100D01*
X794512Y647700D02*
X780288Y647700D01*
X780288Y622300D02*
X794512Y622300D01*
X794512Y596900D02*
X780288Y596900D01*
X780288Y571500D02*
X794512Y571500D01*
X794512Y546100D02*
X780288Y546100D01*
X780288Y520700D02*
X794512Y520700D01*
X794512Y495300D02*
X780288Y495300D01*
X780288Y469900D02*
X794512Y469900D01*
X794512Y444500D02*
X780288Y444500D01*
X780288Y419100D02*
X794512Y419100D01*
X794512Y393700D02*
X780288Y393700D01*
X856488Y393700D02*
X870712Y393700D01*
X870712Y419100D02*
X856488Y419100D01*
X856488Y444500D02*
X870712Y444500D01*
X870712Y469900D02*
X856488Y469900D01*
X856488Y495300D02*
X870712Y495300D01*
X870712Y520700D02*
X856488Y520700D01*
X856488Y546100D02*
X870712Y546100D01*
X870712Y571500D02*
X856488Y571500D01*
X856488Y596900D02*
X870712Y596900D01*
X870712Y622300D02*
X856488Y622300D01*
X856488Y647700D02*
X870712Y647700D01*
X870712Y673100D02*
X856488Y673100D01*
X856488Y698500D02*
X870712Y698500D01*
X870712Y723900D02*
X856488Y723900D01*
D19*
X736600Y520700D03*
X736600Y495300D03*
D17*
X698500Y393700D03*
X596900Y393700D03*
X697230Y417830D03*
X595630Y417830D03*
D19*
X952500Y533400D03*
X952500Y508000D03*
D20*
X952500Y368300D03*
X952500Y469900D03*
D18*
X711200Y749700D03*
X711200Y799700D03*
D17*
X685800Y711200D03*
X584200Y711200D03*
D15*
X444500Y939800D03*
X444500Y914400D03*
X444500Y889000D03*
X444500Y863600D03*
X444500Y838200D03*
X444500Y812800D03*
X444500Y787400D03*
X520700Y787400D03*
X520700Y812800D03*
X520700Y838200D03*
X520700Y863600D03*
X520700Y889000D03*
X520700Y914400D03*
X520700Y939800D03*
X342900Y927100D03*
X342900Y952500D03*
X342900Y838200D03*
X342900Y863600D03*
D22*
X292100Y25400D03*
X266700Y25400D03*
X292100Y50800D03*
X266700Y50800D03*
X292100Y76200D03*
X266700Y76200D03*
X292100Y101600D03*
X266700Y101600D03*
X292100Y127000D03*
X266700Y127000D03*
X292100Y152400D03*
X266700Y152400D03*
X292100Y177800D03*
X266700Y177800D03*
X292100Y203200D03*
X266700Y203200D03*
X292100Y228600D03*
X266700Y228600D03*
X292100Y254000D03*
X266700Y254000D03*
X292100Y279400D03*
X266700Y279400D03*
D17*
X698500Y368300D03*
X596900Y368300D03*
D20*
X393700Y101600D03*
X393700Y203200D03*
D15*
X228600Y203200D03*
X228600Y76200D03*
X342900Y228600D03*
X736600Y698500D03*
X736600Y673100D03*
X736600Y647700D03*
X736600Y622300D03*
X736600Y596900D03*
X736600Y571500D03*
X736600Y546100D03*
X914400Y723900D03*
X914400Y698500D03*
X914400Y673100D03*
X749300Y38100D03*
X749300Y63500D03*
X749300Y88900D03*
X749300Y114300D03*
X749300Y139700D03*
X749300Y165100D03*
X749300Y190500D03*
X749300Y215900D03*
X673100Y38100D03*
X673100Y63500D03*
X673100Y88900D03*
X673100Y114300D03*
X673100Y139700D03*
X673100Y165100D03*
X673100Y190500D03*
X673100Y215900D03*
X647700Y38100D03*
X647700Y63500D03*
X647700Y88900D03*
X647700Y114300D03*
X647700Y139700D03*
X647700Y165100D03*
X647700Y190500D03*
X647700Y215900D03*
X698500Y38100D03*
X698500Y63500D03*
X698500Y88900D03*
X698500Y114300D03*
X698500Y139700D03*
X698500Y165100D03*
X698500Y190500D03*
X698500Y215900D03*
X723900Y38100D03*
X723900Y63500D03*
X723900Y88900D03*
X723900Y114300D03*
X723900Y139700D03*
X723900Y165100D03*
X723900Y190500D03*
X723900Y215900D03*
X774700Y38100D03*
X774700Y63500D03*
X774700Y88900D03*
X774700Y114300D03*
X774700Y139700D03*
X774700Y165100D03*
X774700Y190500D03*
X774700Y215900D03*
X800100Y38100D03*
X800100Y63500D03*
X800100Y88900D03*
X800100Y114300D03*
X800100Y139700D03*
X800100Y165100D03*
X800100Y190500D03*
X800100Y215900D03*
X825500Y38100D03*
X825500Y63500D03*
X825500Y88900D03*
X825500Y114300D03*
X825500Y139700D03*
X825500Y165100D03*
X825500Y190500D03*
X825500Y215900D03*
X850900Y38100D03*
X850900Y63500D03*
X850900Y88900D03*
X850900Y114300D03*
X850900Y139700D03*
X850900Y165100D03*
X850900Y190500D03*
X850900Y215900D03*
X876300Y38100D03*
X876300Y63500D03*
X876300Y88900D03*
X876300Y114300D03*
X876300Y139700D03*
X876300Y165100D03*
X876300Y190500D03*
X876300Y215900D03*
X558800Y38100D03*
X558800Y63500D03*
X558800Y88900D03*
X558800Y114300D03*
X558800Y139700D03*
X558800Y165100D03*
X558800Y190500D03*
X558800Y215900D03*
X584200Y38100D03*
X584200Y63500D03*
X584200Y88900D03*
X584200Y114300D03*
X584200Y139700D03*
X584200Y165100D03*
X584200Y190500D03*
X584200Y215900D03*
X939800Y38100D03*
X939800Y63500D03*
X939800Y88900D03*
X939800Y114300D03*
X939800Y139700D03*
X939800Y165100D03*
X939800Y190500D03*
X939800Y215900D03*
X965200Y38100D03*
X965200Y63500D03*
X965200Y88900D03*
X965200Y114300D03*
X965200Y139700D03*
X965200Y165100D03*
X965200Y190500D03*
X965200Y215900D03*
X406400Y787400D03*
D23*
X342900Y596900D03*
X342900Y647700D03*
X419100Y203200D03*
X419100Y304800D03*
X292100Y495300D03*
X292100Y304800D03*
X152400Y254000D03*
X215900Y482600D03*
X444500Y533400D03*
X444500Y508000D03*
X215900Y469900D03*
X342900Y12700D03*
X533400Y101600D03*
X254000Y381000D03*
X495300Y393700D03*
X228600Y419100D03*
X254000Y482600D03*
X444500Y177800D03*
X457200Y152400D03*
X431800Y139700D03*
X419100Y457200D03*
X482600Y127000D03*
X241300Y342900D03*
X469900Y254000D03*
X495300Y279400D03*
X508000Y469900D03*
X266700Y444500D03*
M02*
