M48
;GenerationSoftware,Autodesk,EAGLE,9.6.2*%
;CreationDate,2021-04-20T23:30:15Z*%
FMAT,2
ICI,OFF
METRIC,TZ,000.000
T9C0.508
T8C0.550
T7C0.813
T6C0.850
T5C0.900
T4C1.000
T3C1.016
T2C1.500
T1C3.175
%
G90
M71
T1
X2540Y96520
X2540Y77470
X97790Y77470
X97790Y96520
T2
X1905Y72969
X1905Y65969
T3
X73660Y57150
X73660Y54610
X91440Y72390
X91440Y69850
X91440Y67310
X74930Y3810
X74930Y6350
X74930Y8890
X74930Y11430
X74930Y13970
X74930Y16510
X74930Y19050
X74930Y21590
X67310Y3810
X67310Y6350
X67310Y8890
X67310Y11430
X67310Y13970
X67310Y16510
X67310Y19050
X67310Y21590
X64770Y3810
X64770Y6350
X64770Y8890
X64770Y11430
X64770Y13970
X64770Y16510
X64770Y19050
X64770Y21590
X69850Y3810
X69850Y6350
X69850Y8890
X69850Y11430
X69850Y13970
X69850Y16510
X73660Y64770
X69850Y19050
X69850Y21590
X72390Y3810
X72390Y6350
X72390Y8890
X72390Y11430
X72390Y13970
X72390Y16510
X72390Y19050
X72390Y21590
X77470Y3810
X77470Y6350
X77470Y8890
X77470Y11430
X77470Y13970
X77470Y16510
X77470Y19050
X77470Y21590
X80010Y3810
X80010Y6350
X80010Y8890
X80010Y11430
X80010Y13970
X80010Y16510
X80010Y19050
X80010Y21590
X82550Y3810
X2540Y36830
X2540Y39370
X12700Y60960
X15240Y60960
X17780Y60960
X20320Y60960
X82550Y6350
X82550Y8890
X82550Y11430
X82550Y13970
X36830Y62230
X36830Y59690
X36830Y57150
X36830Y54610
X36830Y52070
X82550Y16510
X82550Y19050
X82550Y21590
X85090Y3810
X85090Y6350
X85090Y8890
X85090Y11430
X85090Y13970
X85090Y16510
X85090Y19050
X3810Y24130
X3810Y21590
X3810Y19050
X3810Y16510
X3810Y13970
X3810Y11430
X11430Y26670
X11430Y24130
X11430Y21590
X11430Y19050
X11430Y16510
X11430Y13970
X11430Y11430
X85090Y21590
X87630Y3810
X87630Y8890
X87630Y11430
X87630Y13970
X87630Y16510
X87630Y19050
X87630Y21590
X55880Y3810
X55880Y6350
X55880Y8890
X55880Y11430
X55880Y13970
X52070Y86360
X55880Y16510
X55880Y19050
X55880Y21590
X58420Y3810
X58420Y6350
X58420Y8890
X58420Y11430
X58420Y13970
X58420Y16510
X58420Y19050
X58420Y21590
X93980Y3810
X93980Y6350
X93980Y8890
X93980Y11430
X93980Y13970
X93980Y16510
X93980Y19050
X93980Y21590
X96520Y3810
X96520Y6350
X96520Y8890
X96520Y11430
X96520Y13970
X96520Y16510
X96520Y19050
X96520Y21590
X40640Y78740
X44450Y93980
X44450Y91440
X44450Y88900
X44450Y86360
X44450Y83820
X44450Y81280
X44450Y78740
X52070Y78740
X52070Y81280
X52070Y83820
X87630Y6350
X52070Y88900
X52070Y91440
X52070Y93980
X34290Y92710
X34290Y95250
X34290Y83820
X34290Y86360
X29210Y2540
X26670Y2540
X29210Y5080
X26670Y5080
X29210Y7620
X26670Y7620
X29210Y10160
X26670Y10160
X29210Y12700
X26670Y12700
X29210Y15240
X26670Y15240
X29210Y17780
X26670Y17780
X29210Y20320
X26670Y20320
X29210Y22860
X26670Y22860
X29210Y25400
X26670Y25400
X29210Y27940
X26670Y27940
X22860Y20320
X22860Y7620
X34290Y22860
X73660Y69850
X73660Y67310
X73660Y62230
X73660Y59690
T4
X71120Y79970
X71120Y74970
X32980Y67310
X27980Y67310
T5
X2540Y50840
X2540Y55840
X2540Y53340
T6
X4605Y72009
X4605Y66929
T7
X46990Y49530
X86360Y57150
X86360Y59690
X86360Y62230
X86360Y64770
X86360Y67310
X86360Y69850
X86360Y72390
X73660Y52070
X73660Y49530
X69850Y39370
X59690Y39370
X69723Y41783
X59563Y41783
X95250Y53340
X46990Y62230
X95250Y50800
X95250Y36830
X95250Y46990
X68580Y71120
X58420Y71120
X69850Y36830
X78740Y39370
X40640Y68580
X59690Y36830
X39370Y10160
X39370Y20320
X46990Y59690
X46990Y57150
X46990Y54610
X46990Y52070
X46990Y46990
X46990Y44450
X46990Y41910
X46990Y39370
X46990Y36830
X46990Y34290
X46990Y31750
X46990Y29210
X54610Y29210
X54610Y31750
X54610Y34290
X54610Y39370
X54610Y41910
X54610Y44450
X54610Y46990
X54610Y49530
X54610Y52070
X54610Y54610
X54610Y57150
X54610Y59690
X54610Y62230
X54610Y36830
X36830Y73660
X39370Y73660
X50800Y68580
X25400Y62230
X25400Y52070
X62230Y62230
X62230Y59690
X40640Y33020
X40640Y35560
X60960Y52070
X66040Y52070
X78740Y72390
X78740Y69850
X78740Y67310
X78740Y64770
X78740Y62230
X78740Y59690
X78740Y57150
X78740Y54610
X78740Y52070
X78740Y49530
X78740Y46990
X78740Y44450
X78740Y41910
X86360Y39370
X86360Y41910
X86360Y44450
X86360Y46990
X86360Y49530
X86360Y52070
X86360Y54610
T8
X34290Y59690
X34290Y64770
X41910Y20320
X41910Y30480
X29210Y49530
X29210Y30480
X15240Y25400
X21590Y48260
X44450Y53340
X44450Y50800
X21590Y46990
X34290Y1270
X25400Y38100
X49530Y39370
X22860Y41910
X25400Y48260
X44450Y17780
X45720Y15240
X43180Y13970
X41910Y45720
X48260Y12700
X24130Y34290
X46990Y25400
X50800Y46990
X49530Y27940
X53340Y10160
X26670Y44450
T9
X7620Y49530
X22860Y60960
X7620Y71120
M30